{
  "accessors": [
    {
      "bufferView": 2,
      "componentType": 5126,
      "count": 65532,
      "max": [
        173.7849884033203,
        169.53695678710938,
        2.835326910018921
      ],
      "min": [
        -173.75543212890625,
        -169.4130859375,
        -9.81646728515625
      ],
      "type": "VEC3"
    },
    {
      "bufferView": 2,
      "byteOffset": 786384,
      "componentType": 5126,
      "count": 65532,
      "max": [
        0.9997332096099854,
        0.994634747505188,
        1.0
      ],
      "min": [
        -0.999957263469696,
        -0.9998921155929565,
        -0.3392010033130646
      ],
      "type": "VEC3"
    },
    {
      "bufferView": 1,
      "componentType": 5126,
      "count": 65532,
      "max": [
        0.9947760105133057,
        0.33874499797821045
      ],
      "min": [
        0.0004920000210404396,
        0.00019700000120792538
      ],
      "type": "VEC2"
    },
    {
      "bufferView": 0,
      "componentType": 5125,
      "count": 292554,
      "type": "SCALAR"
    },
    {
      "bufferView": 2,
      "byteOffset": 1572768,
      "componentType": 5126,
      "count": 65532,
      "max": [
        -35.5092658996582,
        116.38919830322266,
        5.229935169219971
      ],
      "min": [
        -173.53170776367188,
        -40.06985092163086,
        -2.3959949016571045
      ],
      "type": "VEC3"
    },
    {
      "bufferView": 2,
      "byteOffset": 2359152,
      "componentType": 5126,
      "count": 65532,
      "max": [
        0.9935587644577026,
        0.9936161041259766,
        1.0
      ],
      "min": [
        -0.9900820255279541,
        -0.9909905195236206,
        -0.9984521269798279
      ],
      "type": "VEC3"
    },
    {
      "bufferView": 1,
      "byteOffset": 524256,
      "componentType": 5126,
      "count": 65532,
      "max": [
        0.9998070001602173,
        0.33858200907707214
      ],
      "min": [
        0.00012199999764561653,
        0.00013299999409355223
      ],
      "type": "VEC2"
    },
    {
      "bufferView": 0,
      "byteOffset": 1170216,
      "componentType": 5125,
      "count": 271248,
      "type": "SCALAR"
    },
    {
      "bufferView": 2,
      "byteOffset": 3145536,
      "componentType": 5126,
      "count": 65532,
      "max": [
        -48.08991622924805,
        89.31027221679688,
        3.058811902999878
      ],
      "min": [
        -173.40370178222656,
        -13.832039833068848,
        -2.5709450244903564
      ],
      "type": "VEC3"
    },
    {
      "bufferView": 2,
      "byteOffset": 3931920,
      "componentType": 5126,
      "count": 65532,
      "max": [
        0.8513122797012329,
        0.9458110928535461,
        0.9999998807907104
      ],
      "min": [
        -0.8686919808387756,
        -0.9959349036216736,
        -0.37511709332466125
      ],
      "type": "VEC3"
    },
    {
      "bufferView": 1,
      "byteOffset": 1048512,
      "componentType": 5126,
      "count": 65532,
      "max": [
        0.9998769760131836,
        0.3081530034542084
      ],
      "min": [
        0.00012199999764561653,
        0.00012399999832268804
      ],
      "type": "VEC2"
    },
    {
      "bufferView": 0,
      "byteOffset": 2255208,
      "componentType": 5125,
      "count": 212556,
      "type": "SCALAR"
    },
    {
      "bufferView": 2,
      "byteOffset": 4718304,
      "componentType": 5126,
      "count": 65532,
      "max": [
        173.74098205566406,
        169.48556518554688,
        5.483489990234375
      ],
      "min": [
        -173.58506774902344,
        -167.61769104003906,
        -6.352565765380859
      ],
      "type": "VEC3"
    },
    {
      "bufferView": 2,
      "byteOffset": 5504688,
      "componentType": 5126,
      "count": 65532,
      "max": [
        0.9877416491508484,
        0.9971887469291687,
        0.9999998807907104
      ],
      "min": [
        -0.9969363808631897,
        -0.9995670914649963,
        -0.9947184920310974
      ],
      "type": "VEC3"
    },
    {
      "bufferView": 1,
      "byteOffset": 1572768,
      "componentType": 5126,
      "count": 65532,
      "max": [
        0.9998760223388672,
        0.3381330072879791
      ],
      "min": [
        0.00012199999764561653,
        0.0001829999964684248
      ],
      "type": "VEC2"
    },
    {
      "bufferView": 0,
      "byteOffset": 3105432,
      "componentType": 5125,
      "count": 226221,
      "type": "SCALAR"
    },
    {
      "bufferView": 2,
      "byteOffset": 6291072,
      "componentType": 5126,
      "count": 65532,
      "max": [
        173.7772674560547,
        98.31558990478516,
        6.297317981719971
      ],
      "min": [
        -87.43112182617188,
        -132.85671997070313,
        -2.561016082763672
      ],
      "type": "VEC3"
    },
    {
      "bufferView": 2,
      "byteOffset": 7077456,
      "componentType": 5126,
      "count": 65532,
      "max": [
        0.9920965433120728,
        0.9797039031982422,
        0.9999998807907104
      ],
      "min": [
        -0.9849782586097717,
        -0.996549129486084,
        -0.9774412512779236
      ],
      "type": "VEC3"
    },
    {
      "bufferView": 1,
      "byteOffset": 2097024,
      "componentType": 5126,
      "count": 65532,
      "max": [
        0.9997349977493286,
        0.3037559986114502
      ],
      "min": [
        0.00012199999764561653,
        0.0001340000017080456
      ],
      "type": "VEC2"
    },
    {
      "bufferView": 0,
      "byteOffset": 4010316,
      "componentType": 5125,
      "count": 282954,
      "type": "SCALAR"
    },
    {
      "bufferView": 2,
      "byteOffset": 7863840,
      "componentType": 5126,
      "count": 65532,
      "max": [
        173.7684326171875,
        85.26181030273438,
        9.136260986328125
      ],
      "min": [
        -87.02761840820313,
        -132.52061462402344,
        -2.714453935623169
      ],
      "type": "VEC3"
    },
    {
      "bufferView": 2,
      "byteOffset": 8650224,
      "componentType": 5126,
      "count": 65532,
      "max": [
        0.9959947466850281,
        0.9449650049209595,
        0.9999998807907104
      ],
      "min": [
        -0.9981402158737183,
        -0.9982657432556152,
        -0.537566065788269
      ],
      "type": "VEC3"
    },
    {
      "bufferView": 1,
      "byteOffset": 2621280,
      "componentType": 5126,
      "count": 65532,
      "max": [
        0.9998689889907837,
        0.30367299914360046
      ],
      "min": [
        0.00012199999764561653,
        0.00012199999764561653
      ],
      "type": "VEC2"
    },
    {
      "bufferView": 0,
      "byteOffset": 5142132,
      "componentType": 5125,
      "count": 239295,
      "type": "SCALAR"
    },
    {
      "bufferView": 2,
      "byteOffset": 9436608,
      "componentType": 5126,
      "count": 65532,
      "max": [
        173.55218505859375,
        169.48556518554688,
        9.773544311523438
      ],
      "min": [
        -173.5917510986328,
        -169.1821746826172,
        -6.023475170135498
      ],
      "type": "VEC3"
    },
    {
      "bufferView": 2,
      "byteOffset": 10222992,
      "componentType": 5126,
      "count": 65532,
      "max": [
        0.9968973398208618,
        0.9981737732887268,
        0.9999991059303284
      ],
      "min": [
        -0.9996376633644104,
        -0.9994378685951233,
        -0.9932504892349243
      ],
      "type": "VEC3"
    },
    {
      "bufferView": 1,
      "byteOffset": 3145536,
      "componentType": 5126,
      "count": 65532,
      "max": [
        0.9998030066490173,
        0.3034760057926178
      ],
      "min": [
        0.00012199999764561653,
        0.0001320000010309741
      ],
      "type": "VEC2"
    },
    {
      "bufferView": 0,
      "byteOffset": 6099312,
      "componentType": 5125,
      "count": 245001,
      "type": "SCALAR"
    },
    {
      "bufferView": 2,
      "byteOffset": 11009376,
      "componentType": 5126,
      "count": 65533,
      "max": [
        173.7248077392578,
        169.48556518554688,
        7.468613147735596
      ],
      "min": [
        -173.7447967529297,
        -169.31666564941406,
        -7.512020111083984
      ],
      "type": "VEC3"
    },
    {
      "bufferView": 2,
      "byteOffset": 11795772,
      "componentType": 5126,
      "count": 65533,
      "max": [
        0.9912540912628174,
        0.9927043318748474,
        0.9999997615814209
      ],
      "min": [
        -0.9974620938301086,
        -0.9986677765846252,
        -0.9955226182937622
      ],
      "type": "VEC3"
    },
    {
      "bufferView": 1,
      "byteOffset": 3669792,
      "componentType": 5126,
      "count": 65533,
      "max": [
        0.9998229742050171,
        0.3251659870147705
      ],
      "min": [
        0.00012199999764561653,
        0.0001829999964684248
      ],
      "type": "VEC2"
    },
    {
      "bufferView": 0,
      "byteOffset": 7079316,
      "componentType": 5125,
      "count": 274956,
      "type": "SCALAR"
    },
    {
      "bufferView": 2,
      "byteOffset": 12582168,
      "componentType": 5126,
      "count": 65532,
      "max": [
        173.63192749023438,
        169.35052490234375,
        2.630462884902954
      ],
      "min": [
        -173.57688903808594,
        -169.3722686767578,
        -8.519323348999023
      ],
      "type": "VEC3"
    },
    {
      "bufferView": 2,
      "byteOffset": 13368552,
      "componentType": 5126,
      "count": 65532,
      "max": [
        0.9692487716674805,
        0.9817923307418823,
        0.9999997615814209
      ],
      "min": [
        -0.9989052414894104,
        -0.9989242553710938,
        -0.9991737604141235
      ],
      "type": "VEC3"
    },
    {
      "bufferView": 1,
      "byteOffset": 4194056,
      "componentType": 5126,
      "count": 65532,
      "max": [
        0.9998229742050171,
        0.30364999175071716
      ],
      "min": [
        0.00012199999764561653,
        0.00012199999764561653
      ],
      "type": "VEC2"
    },
    {
      "bufferView": 0,
      "byteOffset": 8179140,
      "componentType": 5125,
      "count": 220440,
      "type": "SCALAR"
    },
    {
      "bufferView": 2,
      "byteOffset": 14154936,
      "componentType": 5126,
      "count": 65532,
      "max": [
        173.6641845703125,
        169.51951599121094,
        5.967864990234375
      ],
      "min": [
        -173.75543212890625,
        -169.34024047851563,
        -6.225460052490234
      ],
      "type": "VEC3"
    },
    {
      "bufferView": 2,
      "byteOffset": 14941320,
      "componentType": 5126,
      "count": 65532,
      "max": [
        0.9831225275993347,
        0.994064450263977,
        1.0
      ],
      "min": [
        -0.9999610185623169,
        -0.9946171045303345,
        -0.9716443419456482
      ],
      "type": "VEC3"
    },
    {
      "bufferView": 1,
      "byteOffset": 4718312,
      "componentType": 5126,
      "count": 65532,
      "max": [
        0.9997529983520508,
        0.33488500118255615
      ],
      "min": [
        0.00012199999764561653,
        0.0001230000052601099
      ],
      "type": "VEC2"
    },
    {
      "bufferView": 0,
      "byteOffset": 9060900,
      "componentType": 5125,
      "count": 248904,
      "type": "SCALAR"
    },
    {
      "bufferView": 2,
      "byteOffset": 15727704,
      "componentType": 5126,
      "count": 65532,
      "max": [
        173.52198791503906,
        169.50096130371094,
        5.5097198486328125
      ],
      "min": [
        -84.2613296508789,
        49.45343017578125,
        -0.9099979996681213
      ],
      "type": "VEC3"
    },
    {
      "bufferView": 2,
      "byteOffset": 16514088,
      "componentType": 5126,
      "count": 65532,
      "max": [
        0.9994720220565796,
        0.9999663829803467,
        1.0
      ],
      "min": [
        -0.9967905282974243,
        -0.9968566298484802,
        -0.9833052158355713
      ],
      "type": "VEC3"
    },
    {
      "bufferView": 1,
      "byteOffset": 5242568,
      "componentType": 5126,
      "count": 65532,
      "max": [
        0.9997979998588562,
        0.27935099601745605
      ],
      "min": [
        0.00012199999764561653,
        0.00013000000035390258
      ],
      "type": "VEC2"
    },
    {
      "bufferView": 0,
      "byteOffset": 10056516,
      "componentType": 5125,
      "count": 277740,
      "type": "SCALAR"
    },
    {
      "bufferView": 2,
      "byteOffset": 17300472,
      "componentType": 5126,
      "count": 35956,
      "max": [
        173.62625122070313,
        141.46885681152344,
        8.294906616210938
      ],
      "min": [
        -87.65478515625,
        -131.77403259277344,
        -2.402100086212158
      ],
      "type": "VEC3"
    },
    {
      "bufferView": 2,
      "byteOffset": 17731944,
      "componentType": 5126,
      "count": 35956,
      "max": [
        0.9972306489944458,
        0.9973838925361633,
        0.9999998807907104
      ],
      "min": [
        -0.9996682405471802,
        -0.9986007809638977,
        -0.9664864540100098
      ],
      "type": "VEC3"
    },
    {
      "bufferView": 1,
      "byteOffset": 5766824,
      "componentType": 5126,
      "count": 35956,
      "max": [
        0.9996910095214844,
        0.30104801058769226
      ],
      "min": [
        0.00012199999764561653,
        0.00013800000306218863
      ],
      "type": "VEC2"
    },
    {
      "bufferView": 0,
      "byteOffset": 11167476,
      "componentType": 5125,
      "count": 162450,
      "type": "SCALAR"
    }
  ],
  "asset": {
    "extras": {
      "author": "Metazeon (https://sketchfab.com/Metazeon)",
      "license": "CC-BY-4.0 (http://creativecommons.org/licenses/by/4.0/)",
      "source": "https://sketchfab.com/3d-models/rock-reef-beaches-seaside-small-island-414de6175f2d4a1d8e2cb5e7d11ca2d7",
      "title": "Rock, reef, beaches, seaside, small island"
    },
    "generator": "Sketchfab-16.95.0",
    "version": "2.0"
  },
  "bufferViews": [
    {
      "buffer": 0,
      "byteLength": 11817276,
      "name": "floatBufferViews",
      "target": 34963
    },
    {
      "buffer": 0,
      "byteLength": 6054472,
      "byteOffset": 11817276,
      "byteStride": 8,
      "name": "floatBufferViews",
      "target": 34962
    },
    {
      "buffer": 0,
      "byteLength": 18163416,
      "byteOffset": 17871748,
      "byteStride": 12,
      "name": "floatBufferViews",
      "target": 34962
    }
  ],
  "buffers": [
    {
      "byteLength": 36035164,
      "uri": "scene.bin"
    }
  ],
  "extensionsUsed": [
    "KHR_materials_specular"
  ],
  "images": [
    {
      "uri": "textures/20250731_011_RC_LOD0_u0_v0_baseColor.png"
    }
  ],
  "materials": [
    {
      "doubleSided": true,
      "extensions": {
        "KHR_materials_specular": {
          "specularColorFactor": [
            1.0,
            1.0,
            1.0
          ],
          "specularFactor": 0.1
        }
      },
      "name": "20250731_011_RC_LOD0_u0_v0",
      "pbrMetallicRoughness": {
        "baseColorTexture": {
          "index": 0
        },
        "metallicFactor": 0.1,
        "roughnessFactor": 0.9
      }
    }
  ],
  "meshes": [
    {
      "name": "Object_0",
      "primitives": [
        {
          "attributes": {
            "NORMAL": 1,
            "POSITION": 0,
            "TEXCOORD_0": 2
          },
          "indices": 3,
          "material": 0,
          "mode": 4
        }
      ]
    },
    {
      "name": "Object_1",
      "primitives": [
        {
          "attributes": {
            "NORMAL": 5,
            "POSITION": 4,
            "TEXCOORD_0": 6
          },
          "indices": 7,
          "material": 0,
          "mode": 4
        }
      ]
    },
    {
      "name": "Object_2",
      "primitives": [
        {
          "attributes": {
            "NORMAL": 9,
            "POSITION": 8,
            "TEXCOORD_0": 10
          },
          "indices": 11,
          "material": 0,
          "mode": 4
        }
      ]
    },
    {
      "name": "Object_3",
      "primitives": [
        {
          "attributes": {
            "NORMAL": 13,
            "POSITION": 12,
            "TEXCOORD_0": 14
          },
          "indices": 15,
          "material": 0,
          "mode": 4
        }
      ]
    },
    {
      "name": "Object_4",
      "primitives": [
        {
          "attributes": {
            "NORMAL": 17,
            "POSITION": 16,
            "TEXCOORD_0": 18
          },
          "indices": 19,
          "material": 0,
          "mode": 4
        }
      ]
    },
    {
      "name": "Object_5",
      "primitives": [
        {
          "attributes": {
            "NORMAL": 21,
            "POSITION": 20,
            "TEXCOORD_0": 22
          },
          "indices": 23,
          "material": 0,
          "mode": 4
        }
      ]
    },
    {
      "name": "Object_6",
      "primitives": [
        {
          "attributes": {
            "NORMAL": 25,
            "POSITION": 24,
            "TEXCOORD_0": 26
          },
          "indices": 27,
          "material": 0,
          "mode": 4
        }
      ]
    },
    {
      "name": "Object_7",
      "primitives": [
        {
          "attributes": {
            "NORMAL": 29,
            "POSITION": 28,
            "TEXCOORD_0": 30
          },
          "indices": 31,
          "material": 0,
          "mode": 4
        }
      ]
    },
    {
      "name": "Object_8",
      "primitives": [
        {
          "attributes": {
            "NORMAL": 33,
            "POSITION": 32,
            "TEXCOORD_0": 34
          },
          "indices": 35,
          "material": 0,
          "mode": 4
        }
      ]
    },
    {
      "name": "Object_9",
      "primitives": [
        {
          "attributes": {
            "NORMAL": 37,
            "POSITION": 36,
            "TEXCOORD_0": 38
          },
          "indices": 39,
          "material": 0,
          "mode": 4
        }
      ]
    },
    {
      "name": "Object_10",
      "primitives": [
        {
          "attributes": {
            "NORMAL": 41,
            "POSITION": 40,
            "TEXCOORD_0": 42
          },
          "indices": 43,
          "material": 0,
          "mode": 4
        }
      ]
    },
    {
      "name": "Object_11",
      "primitives": [
        {
          "attributes": {
            "NORMAL": 45,
            "POSITION": 44,
            "TEXCOORD_0": 46
          },
          "indices": 47,
          "material": 0,
          "mode": 4
        }
      ]
    }
  ],
  "nodes": [
    {
      "children": [
        1
      ],
      "matrix": [
        1.0,
        0.0,
        0.0,
        0.0,
        0.0,
        2.220446049250313e-16,
        -1.0,
        0.0,
        0.0,
        1.0,
        2.220446049250313e-16,
        0.0,
        0.0,
        0.0,
        0.0,
        1.0
      ],
      "name": "Sketchfab_model"
    },
    {
      "children": [
        2,
        3,
        4,
        5,
        6,
        7,
        8,
        9,
        10,
        11,
        12,
        13
      ],
      "name": "20250731_011_RC_LOD0.obj.cleaner.materialmerger.gles"
    },
    {
      "mesh": 0,
      "name": "Object_2"
    },
    {
      "mesh": 1,
      "name": "Object_3"
    },
    {
      "mesh": 2,
      "name": "Object_4"
    },
    {
      "mesh": 3,
      "name": "Object_5"
    },
    {
      "mesh": 4,
      "name": "Object_6"
    },
    {
      "mesh": 5,
      "name": "Object_7"
    },
    {
      "mesh": 6,
      "name": "Object_8"
    },
    {
      "mesh": 7,
      "name": "Object_9"
    },
    {
      "mesh": 8,
      "name": "Object_10"
    },
    {
      "mesh": 9,
      "name": "Object_11"
    },
    {
      "mesh": 10,
      "name": "Object_12"
    },
    {
      "mesh": 11,
      "name": "Object_13"
    }
  ],
  "samplers": [
    {
      "magFilter": 9729,
      "minFilter": 9987,
      "wrapS": 10497,
      "wrapT": 10497
    }
  ],
  "scene": 0,
  "scenes": [
    {
      "name": "Sketchfab_Scene",
      "nodes": [
        0
      ]
    }
  ],
  "textures": [
    {
      "sampler": 0,
      "source": 0
    }
  ]
}
